<mxfile host="app.diagrams.net" modified="2023-05-12T22:40:24.064Z" agent="Mozilla/5.0 (Windows NT 10.0; Win64; x64) AppleWebKit/537.36 (KHTML, like Gecko) Chrome/112.0.0.0 Safari/537.36 OPR/98.0.0.0" etag="IwaFPdKt_LQzvgqmcZFh" version="21.2.9" type="github">
  <diagram name="Página-1" id="kDTQwKIJoVD5zW0nMRsJ">
    <mxGraphModel dx="1393" dy="955" grid="1" gridSize="10" guides="1" tooltips="1" connect="1" arrows="1" fold="1" page="1" pageScale="1" pageWidth="827" pageHeight="1169" math="0" shadow="0">
      <root>
        <mxCell id="0" />
        <mxCell id="1" parent="0" />
        <mxCell id="pxuceMYtycOYZKtdvbH1-50" style="edgeStyle=orthogonalEdgeStyle;rounded=0;orthogonalLoop=1;jettySize=auto;html=1;entryX=0.5;entryY=0;entryDx=0;entryDy=0;fillColor=#eeeeee;strokeColor=#36393d;shadow=0;" parent="1" source="pxuceMYtycOYZKtdvbH1-14" target="pxuceMYtycOYZKtdvbH1-22" edge="1">
          <mxGeometry relative="1" as="geometry">
            <Array as="points">
              <mxPoint x="230" y="330" />
              <mxPoint x="860" y="330" />
            </Array>
          </mxGeometry>
        </mxCell>
        <mxCell id="pxuceMYtycOYZKtdvbH1-51" style="edgeStyle=orthogonalEdgeStyle;rounded=0;orthogonalLoop=1;jettySize=auto;html=1;entryX=0;entryY=0.5;entryDx=0;entryDy=0;fillColor=#eeeeee;strokeColor=#36393d;" parent="1" source="pxuceMYtycOYZKtdvbH1-14" target="pxuceMYtycOYZKtdvbH1-19" edge="1">
          <mxGeometry relative="1" as="geometry" />
        </mxCell>
        <mxCell id="pxuceMYtycOYZKtdvbH1-52" style="edgeStyle=orthogonalEdgeStyle;rounded=0;orthogonalLoop=1;jettySize=auto;html=1;entryX=0;entryY=0.5;entryDx=0;entryDy=0;fillColor=#eeeeee;strokeColor=#36393d;" parent="1" source="pxuceMYtycOYZKtdvbH1-14" target="pxuceMYtycOYZKtdvbH1-25" edge="1">
          <mxGeometry relative="1" as="geometry">
            <Array as="points">
              <mxPoint x="230" y="423" />
            </Array>
          </mxGeometry>
        </mxCell>
        <mxCell id="pxuceMYtycOYZKtdvbH1-55" style="edgeStyle=orthogonalEdgeStyle;rounded=0;orthogonalLoop=1;jettySize=auto;html=1;entryX=0.5;entryY=0;entryDx=0;entryDy=0;fillColor=#eeeeee;strokeColor=#36393d;" parent="1" source="pxuceMYtycOYZKtdvbH1-14" target="pxuceMYtycOYZKtdvbH1-28" edge="1">
          <mxGeometry relative="1" as="geometry" />
        </mxCell>
        <mxCell id="pxuceMYtycOYZKtdvbH1-14" value="Usuário" style="swimlane;fontStyle=1;align=center;verticalAlign=top;childLayout=stackLayout;horizontal=1;startSize=26;horizontalStack=0;resizeParent=1;resizeParentMax=0;resizeLast=0;collapsible=1;marginBottom=0;whiteSpace=wrap;html=1;fillColor=#dae8fc;strokeColor=#6c8ebf;" parent="1" vertex="1">
          <mxGeometry x="150" y="450" width="160" height="180" as="geometry" />
        </mxCell>
        <mxCell id="pxuceMYtycOYZKtdvbH1-15" value="- _id: String&lt;br data-darkreader-inline-border=&quot;&quot; style=&quot;border-color: var(--darkreader-border--border-color); --darkreader-inline-border:var(--darkreader-border--darkreader-border--border-color);&quot;&gt;+ name: String&lt;br style=&quot;border-color: var(--border-color); --darkreader-inline-border:var(--darkreader-border--border-color);&quot; data-darkreader-inline-border=&quot;&quot;&gt;+ email: String&lt;br style=&quot;border-color: var(--border-color); --darkreader-inline-border:var(--darkreader-border--border-color);&quot; data-darkreader-inline-border=&quot;&quot;&gt;- password: String&lt;br style=&quot;border-color: var(--border-color); --darkreader-inline-border:var(--darkreader-border--border-color);&quot; data-darkreader-inline-border=&quot;&quot;&gt;+ followers: Array&lt;br style=&quot;border-color: var(--border-color); --darkreader-inline-border:var(--darkreader-border--border-color);&quot; data-darkreader-inline-border=&quot;&quot;&gt;+ settings: Object&lt;br style=&quot;border-color: var(--border-color); --darkreader-inline-border:var(--darkreader-border--border-color);&quot; data-darkreader-inline-border=&quot;&quot;&gt;+ groupes: Object&lt;br style=&quot;border-color: var(--border-color); --darkreader-inline-border:var(--darkreader-border--border-color);&quot; data-darkreader-inline-border=&quot;&quot;&gt;- chats: Array&lt;br style=&quot;border-color: var(--border-color); --darkreader-inline-border:var(--darkreader-border--border-color);&quot; data-darkreader-inline-border=&quot;&quot;&gt;+ posts: Array&lt;br style=&quot;border-color: var(--border-color); --darkreader-inline-border:var(--darkreader-border--border-color);&quot; data-darkreader-inline-border=&quot;&quot;&gt;+ otherInfo: Object" style="text;strokeColor=#6c8ebf;fillColor=#dae8fc;align=left;verticalAlign=top;spacingLeft=4;spacingRight=4;overflow=hidden;rotatable=0;points=[[0,0.5],[1,0.5]];portConstraint=eastwest;whiteSpace=wrap;html=1;" parent="pxuceMYtycOYZKtdvbH1-14" vertex="1">
          <mxGeometry y="26" width="160" height="154" as="geometry" />
        </mxCell>
        <mxCell id="pxuceMYtycOYZKtdvbH1-18" value="Grupo" style="swimlane;fontStyle=1;align=center;verticalAlign=top;childLayout=stackLayout;horizontal=1;startSize=26;horizontalStack=0;resizeParent=1;resizeParentMax=0;resizeLast=0;collapsible=1;marginBottom=0;whiteSpace=wrap;html=1;fillColor=#dae8fc;strokeColor=#6c8ebf;" parent="1" vertex="1">
          <mxGeometry x="370" y="630" width="160" height="120" as="geometry" />
        </mxCell>
        <mxCell id="pxuceMYtycOYZKtdvbH1-19" value="- _id: String&lt;br&gt;+ title: String&lt;br&gt;+ desc: String&lt;br&gt;+ usersOnGroup: Array&lt;br&gt;+ createdAt: String&lt;br&gt;- messages: Array" style="text;strokeColor=#6c8ebf;fillColor=#dae8fc;align=left;verticalAlign=top;spacingLeft=4;spacingRight=4;overflow=hidden;rotatable=0;points=[[0,0.5],[1,0.5]];portConstraint=eastwest;whiteSpace=wrap;html=1;" parent="pxuceMYtycOYZKtdvbH1-18" vertex="1">
          <mxGeometry y="26" width="160" height="94" as="geometry" />
        </mxCell>
        <mxCell id="pxuceMYtycOYZKtdvbH1-34" style="edgeStyle=orthogonalEdgeStyle;rounded=0;orthogonalLoop=1;jettySize=auto;html=1;entryX=0.498;entryY=1.012;entryDx=0;entryDy=0;entryPerimeter=0;fillColor=#eeeeee;strokeColor=#36393d;" parent="1" source="pxuceMYtycOYZKtdvbH1-20" target="pxuceMYtycOYZKtdvbH1-25" edge="1">
          <mxGeometry relative="1" as="geometry" />
        </mxCell>
        <mxCell id="pxuceMYtycOYZKtdvbH1-41" style="edgeStyle=orthogonalEdgeStyle;rounded=0;orthogonalLoop=1;jettySize=auto;html=1;entryX=0.5;entryY=0;entryDx=0;entryDy=0;fillColor=#eeeeee;strokeColor=#36393d;" parent="1" source="pxuceMYtycOYZKtdvbH1-20" target="pxuceMYtycOYZKtdvbH1-18" edge="1">
          <mxGeometry relative="1" as="geometry" />
        </mxCell>
        <mxCell id="pxuceMYtycOYZKtdvbH1-20" value="Mensagem" style="swimlane;fontStyle=1;align=center;verticalAlign=top;childLayout=stackLayout;horizontal=1;startSize=26;horizontalStack=0;resizeParent=1;resizeParentMax=0;resizeLast=0;collapsible=1;marginBottom=0;whiteSpace=wrap;html=1;fillColor=#dae8fc;strokeColor=#6c8ebf;" parent="1" vertex="1">
          <mxGeometry x="370" y="480" width="160" height="120" as="geometry" />
        </mxCell>
        <mxCell id="pxuceMYtycOYZKtdvbH1-21" value="- _id: String&lt;br&gt;- chatId: String&lt;br&gt;+ content: String&lt;br&gt;- sendedBy: Object&lt;br&gt;+ sendedAt: String&lt;br&gt;- sendedIn: String&amp;nbsp;" style="text;strokeColor=#6c8ebf;fillColor=#dae8fc;align=left;verticalAlign=top;spacingLeft=4;spacingRight=4;overflow=hidden;rotatable=0;points=[[0,0.5],[1,0.5]];portConstraint=eastwest;whiteSpace=wrap;html=1;" parent="pxuceMYtycOYZKtdvbH1-20" vertex="1">
          <mxGeometry y="26" width="160" height="94" as="geometry" />
        </mxCell>
        <mxCell id="pxuceMYtycOYZKtdvbH1-22" value="Post" style="swimlane;fontStyle=1;align=center;verticalAlign=top;childLayout=stackLayout;horizontal=1;startSize=26;horizontalStack=0;resizeParent=1;resizeParentMax=0;resizeLast=0;collapsible=1;marginBottom=0;whiteSpace=wrap;html=1;fillColor=#dae8fc;strokeColor=#6c8ebf;shadow=1;" parent="1" vertex="1">
          <mxGeometry x="780" y="445" width="160" height="190" as="geometry" />
        </mxCell>
        <mxCell id="pxuceMYtycOYZKtdvbH1-23" value="- _id: String&lt;br&gt;- userId: String&lt;br&gt;+ name: String&lt;br&gt;+ desc: String&lt;br&gt;+ content: Object&lt;br&gt;+ postedBy: Object&lt;br&gt;+ postedAt: String&lt;br&gt;- postedIn: Object&lt;br&gt;+ comments: Array&lt;br&gt;+ likes: Object&lt;br&gt;+ views: Object&lt;br&gt;&amp;nbsp;" style="text;strokeColor=#6c8ebf;fillColor=#dae8fc;align=left;verticalAlign=top;spacingLeft=4;spacingRight=4;overflow=hidden;rotatable=0;points=[[0,0.5],[1,0.5]];portConstraint=eastwest;whiteSpace=wrap;html=1;shadow=0;" parent="pxuceMYtycOYZKtdvbH1-22" vertex="1">
          <mxGeometry y="26" width="160" height="164" as="geometry" />
        </mxCell>
        <mxCell id="pxuceMYtycOYZKtdvbH1-24" value="Conversa" style="swimlane;fontStyle=1;align=center;verticalAlign=top;childLayout=stackLayout;horizontal=1;startSize=26;horizontalStack=0;resizeParent=1;resizeParentMax=0;resizeLast=0;collapsible=1;marginBottom=0;whiteSpace=wrap;html=1;fillColor=#dae8fc;strokeColor=#6c8ebf;" parent="1" vertex="1">
          <mxGeometry x="370" y="370" width="160" height="80" as="geometry" />
        </mxCell>
        <mxCell id="pxuceMYtycOYZKtdvbH1-25" value="- _id: String&lt;br&gt;- users: Array&lt;br&gt;- messages: Array" style="text;strokeColor=#6c8ebf;fillColor=#dae8fc;align=left;verticalAlign=top;spacingLeft=4;spacingRight=4;overflow=hidden;rotatable=0;points=[[0,0.5],[1,0.5]];portConstraint=eastwest;whiteSpace=wrap;html=1;" parent="pxuceMYtycOYZKtdvbH1-24" vertex="1">
          <mxGeometry y="26" width="160" height="54" as="geometry" />
        </mxCell>
        <mxCell id="ZPjC307v8qjctaAPeDPb-4" style="edgeStyle=orthogonalEdgeStyle;rounded=0;orthogonalLoop=1;jettySize=auto;html=1;entryX=0.5;entryY=0;entryDx=0;entryDy=0;" edge="1" parent="1" source="pxuceMYtycOYZKtdvbH1-26" target="ZPjC307v8qjctaAPeDPb-2">
          <mxGeometry relative="1" as="geometry" />
        </mxCell>
        <mxCell id="pxuceMYtycOYZKtdvbH1-26" value="Classe&lt;br&gt;" style="swimlane;fontStyle=1;align=center;verticalAlign=top;childLayout=stackLayout;horizontal=1;startSize=26;horizontalStack=0;resizeParent=1;resizeParentMax=0;resizeLast=0;collapsible=1;marginBottom=0;whiteSpace=wrap;html=1;fillColor=#dae8fc;strokeColor=#6c8ebf;" parent="1" vertex="1">
          <mxGeometry x="560" y="450" width="160" height="180" as="geometry" />
        </mxCell>
        <mxCell id="pxuceMYtycOYZKtdvbH1-27" value="- _id: String&lt;br&gt;+ title: String&lt;br&gt;+ desc: String&lt;br&gt;+ theme: String&lt;br&gt;+ usersOnClass: Array&lt;br&gt;+ createdAt: String&lt;br&gt;- messages: Array&lt;br&gt;+ voiceChannels: Array&lt;br&gt;+ chatChannels: Array" style="text;strokeColor=#6c8ebf;fillColor=#dae8fc;align=left;verticalAlign=top;spacingLeft=4;spacingRight=4;overflow=hidden;rotatable=0;points=[[0,0.5],[1,0.5]];portConstraint=eastwest;whiteSpace=wrap;html=1;" parent="pxuceMYtycOYZKtdvbH1-26" vertex="1">
          <mxGeometry y="26" width="160" height="154" as="geometry" />
        </mxCell>
        <mxCell id="pxuceMYtycOYZKtdvbH1-28" value="Notícia" style="swimlane;fontStyle=1;align=center;verticalAlign=top;childLayout=stackLayout;horizontal=1;startSize=26;horizontalStack=0;resizeParent=1;resizeParentMax=0;resizeLast=0;collapsible=1;marginBottom=0;whiteSpace=wrap;html=1;fillColor=#dae8fc;strokeColor=#6c8ebf;" parent="1" vertex="1">
          <mxGeometry x="150" y="750" width="160" height="170" as="geometry" />
        </mxCell>
        <mxCell id="pxuceMYtycOYZKtdvbH1-29" value="- _id: String&lt;br&gt;- authorId: String&lt;br&gt;+ name: String&lt;br&gt;+ desc: String&lt;br&gt;+ content: Object&lt;br&gt;+ postedAt: String&lt;br&gt;+ comments: Array&lt;br&gt;+ likes: Object&lt;br&gt;+ views: Object&lt;br&gt;&amp;nbsp;" style="text;strokeColor=#6c8ebf;fillColor=#dae8fc;align=left;verticalAlign=top;spacingLeft=4;spacingRight=4;overflow=hidden;rotatable=0;points=[[0,0.5],[1,0.5]];portConstraint=eastwest;whiteSpace=wrap;html=1;shadow=0;" parent="pxuceMYtycOYZKtdvbH1-28" vertex="1">
          <mxGeometry y="26" width="160" height="144" as="geometry" />
        </mxCell>
        <mxCell id="pxuceMYtycOYZKtdvbH1-31" style="edgeStyle=orthogonalEdgeStyle;rounded=0;orthogonalLoop=1;jettySize=auto;html=1;fillColor=#eeeeee;strokeColor=#36393d;" parent="1" source="pxuceMYtycOYZKtdvbH1-15" target="pxuceMYtycOYZKtdvbH1-21" edge="1">
          <mxGeometry relative="1" as="geometry" />
        </mxCell>
        <mxCell id="pxuceMYtycOYZKtdvbH1-40" style="edgeStyle=orthogonalEdgeStyle;rounded=0;orthogonalLoop=1;jettySize=auto;html=1;entryX=0;entryY=0.5;entryDx=0;entryDy=0;fillColor=#eeeeee;strokeColor=#36393d;" parent="1" source="pxuceMYtycOYZKtdvbH1-21" target="pxuceMYtycOYZKtdvbH1-27" edge="1">
          <mxGeometry relative="1" as="geometry" />
        </mxCell>
        <mxCell id="pxuceMYtycOYZKtdvbH1-48" style="edgeStyle=orthogonalEdgeStyle;rounded=0;orthogonalLoop=1;jettySize=auto;html=1;entryX=0;entryY=0.5;entryDx=0;entryDy=0;fillColor=#dae8fc;strokeColor=#6c8ebf;" parent="1" source="pxuceMYtycOYZKtdvbH1-27" target="pxuceMYtycOYZKtdvbH1-23" edge="1">
          <mxGeometry relative="1" as="geometry" />
        </mxCell>
        <mxCell id="ZPjC307v8qjctaAPeDPb-2" value="Fórum" style="swimlane;fontStyle=1;align=center;verticalAlign=top;childLayout=stackLayout;horizontal=1;startSize=26;horizontalStack=0;resizeParent=1;resizeParentMax=0;resizeLast=0;collapsible=1;marginBottom=0;whiteSpace=wrap;html=1;fillColor=#dae8fc;strokeColor=#6c8ebf;" vertex="1" parent="1">
          <mxGeometry x="560" y="680" width="160" height="140" as="geometry" />
        </mxCell>
        <mxCell id="ZPjC307v8qjctaAPeDPb-3" value="- _id: String&lt;br&gt;+ title: String&lt;br&gt;+ desc: String&lt;br&gt;+ theme: String&lt;br&gt;+ createdAt: String&lt;br&gt;+ messages: Array&lt;br&gt;+ closedAt: String&lt;br&gt;" style="text;strokeColor=#6c8ebf;fillColor=#dae8fc;align=left;verticalAlign=top;spacingLeft=4;spacingRight=4;overflow=hidden;rotatable=0;points=[[0,0.5],[1,0.5]];portConstraint=eastwest;whiteSpace=wrap;html=1;" vertex="1" parent="ZPjC307v8qjctaAPeDPb-2">
          <mxGeometry y="26" width="160" height="114" as="geometry" />
        </mxCell>
      </root>
    </mxGraphModel>
  </diagram>
</mxfile>
